<svg xmlns="http://www.w3.org/2000/svg" width="24" height="25" fill="none"><path stroke="#1F2937" stroke-width="1.5" d="M12 4.25q-3.417 0-5.834 2.416T3.75 12.5t2.416 5.834Q8.583 20.749 12 20.75t5.834-2.416q2.415-2.417 2.416-5.834t-2.416-5.834Q15.417 4.251 12 4.25Z"/><path stroke="#1F2937" stroke-linecap="round" stroke-width="1.313" d="M9.375 9.982s.04-.82.917-1.526c.521-.42 1.146-.541 1.708-.55.512-.006.97.079 1.244.209.468.223 1.381.768 1.381 1.926 0 1.219-.797 1.772-1.705 2.381-.908.61-1.154 1.27-1.154 1.953"/><circle cx="11.719" cy="16.813" r=".938" fill="#1F2937"/></svg>