<svg xmlns="http://www.w3.org/2000/svg" width="32" height="32" fill="none"><path stroke="#9CA3AF" stroke-linejoin="round" stroke-width="2" d="M3 8a3 3 0 0 1 3-3h20a3 3 0 0 1 3 3v16a3 3 0 0 1-3 3H6a3 3 0 0 1-3-3z"/><circle cx="21" cy="11" r="2" stroke="#9CA3AF" stroke-width="2"/><path stroke="#9CA3AF" stroke-linecap="round" stroke-linejoin="round" stroke-width="2" d="m19 20.987-5.666-5.656a1.93 1.93 0 0 0-1.355-.584 1.93 1.93 0 0 0-1.387.503L3 22m11 5 7.709-7.709a1.94 1.94 0 0 1 1.323-.585q.775-.035 1.371.46L29 23"/></svg>