<svg xmlns="http://www.w3.org/2000/svg" width="24" height="16" fill="none"><path fill="#9D2235" d="M19.8 13.76H4.2c-.33 0-.6.216-.6.48v.96c0 .264.27.48.6.48h15.6c.33 0 .6-.216.6-.48v-.96c0-.264-.27-.48-.6-.48m2.4-9.6c-.994 0-1.8.645-1.8 1.44 0 .213.06.411.165.594L17.85 7.496c-.578.276-1.324.12-1.658-.348L13.136 2.87c.402-.264.664-.66.664-1.11 0-.795-.806-1.44-1.8-1.44s-1.8.645-1.8 1.44c0 .45.263.846.664 1.11L7.807 7.148c-.333.468-1.083.624-1.657.348L3.439 6.194a1.2 1.2 0 0 0 .165-.594c0-.795-.807-1.44-1.8-1.44C.81 4.16 0 4.805 0 5.6s.806 1.44 1.8 1.44c.097 0 .195-.012.289-.024L4.8 12.8h14.4l2.711-5.784c.094.012.191.024.289.024.994 0 1.8-.645 1.8-1.44s-.806-1.44-1.8-1.44"/></svg>