<svg xmlns="http://www.w3.org/2000/svg" width="24" height="12" fill="none"><path fill="#9D2235" d="M23.338 2.916 12.878.346a3.7 3.7 0 0 0-1.755 0L.663 2.915c-.884.217-.884 1.15 0 1.368l1.823.448c-.4.396-.646.878-.67 1.407-.362.166-.616.464-.616.821 0 .323.213.596.52.77l-.958 3.446c-.083.3.202.584.586.584h2.104c.384 0 .669-.284.586-.584L3.08 7.73c.307-.174.52-.447.52-.77 0-.347-.243-.637-.587-.806.028-.45.316-.849.776-1.102l7.334 1.803c.34.083.991.188 1.754 0l10.46-2.57c.884-.218.884-1.152 0-1.369M13.23 7.773a5.2 5.2 0 0 1-2.46 0L5.332 6.436 4.8 9.84c0 1.06 3.224 1.92 7.2 1.92s7.2-.86 7.2-1.92l-.532-3.404z"/></svg>